<svg xmlns="http://www.w3.org/2000/svg" width="800px" height="932px" viewBox="0 0 800 932">
<defs>
<marker id="arrow" markerWidth="10" markerHeight="7" refX="10" refY="3.5" orient="auto">
<path d="M0,0 L10,3.5 L0,7 z" fill="#000" />
</marker>
</defs>
<rect width="100%" height="100%" fill="#ffffff"/>
<rect x="20.0" y="25.999999999999993" width="220.00000000000003" height="72.0" fill="#E8F5E8" stroke="#333" stroke-width="1" rx="6"/>
<text x="28.0" y="41.99999999999999" font-family="sans-serif" font-size="12">
<tspan x="28.0" y="41.99999999999999">src</tspan>
<tspan x="28.0" y="55.99999999999999">- create_arxml_editor</tspan>
</text>
<rect x="279.99999999999994" y="19.999999999999993" width="220.00000000000003" height="84.0" fill="#E8F5E8" stroke="#333" stroke-width="1" rx="6"/>
<text x="287.99999999999994" y="35.99999999999999" font-family="sans-serif" font-size="12">
<tspan x="287.99999999999994" y="35.99999999999999">src/ui</tspan>
<tspan x="287.99999999999994" y="49.99999999999999">- main</tspan>
<tspan x="287.99999999999994" y="63.99999999999999">- main</tspan>
</text>
<rect x="539.9999999999999" y="25.999999999999993" width="220.00000000000003" height="72.0" fill="#E8F5E8" stroke="#333" stroke-width="1" rx="6"/>
<text x="547.9999999999999" y="41.99999999999999" font-family="sans-serif" font-size="12">
<tspan x="547.9999999999999" y="41.99999999999999">src/core</tspan>
<tspan x="547.9999999999999" y="55.99999999999999">- setup_container</tspan>
</text>
<rect x="20.0" y="142.0" width="220.00000000000003" height="120.0" fill="#E8F5E8" stroke="#333" stroke-width="1" rx="6"/>
<text x="28.0" y="158.0" font-family="sans-serif" font-size="12">
<tspan x="28.0" y="158.0">src/core/domain</tspan>
<tspan x="28.0" y="172.0">- from_qobject_data_element</tspan>
<tspan x="28.0" y="186.0">-</tspan>
<tspan x="28.0" y="200.0">from_qobject_port_interface</tspan>
<tspan x="28.0" y="214.0">- to_qobject_port_interface</tspan>
<tspan x="28.0" y="228.0">-</tspan>
<tspan x="28.0" y="242.0">from_qobject_sw_component_type</tspan>
<tspan x="28.0" y="256.0">-</tspan>
<tspan x="28.0" y="270.0">to_qobject_sw_component_type</tspan>
</text>
</svg>