<svg xmlns="http://www.w3.org/2000/svg" width="840px" height="915px" viewBox="0 0 840 915">
<defs>
<marker id="arrow" markerWidth="10" markerHeight="7" refX="10" refY="3.5" orient="auto">
<path d="M0,0 L10,3.5 L0,7 z" fill="#000" />
</marker>
</defs>
<rect width="100%" height="100%" fill="#ffffff"/>
<rect x="220.0" y="20.0" width="600.0" height="350.0" fill="#E8F5E8" stroke="#333" stroke-width="1" rx="6"/>
<text x="228.0" y="36.0" font-family="sans-serif" font-size="12">
<tspan x="228.0" y="36.0">UI</tspan>
</text>
<rect x="20.0" y="25.00000000000007" width="520.0" height="50.0" fill="#E8F5E8" stroke="#333" stroke-width="1" rx="6"/>
<text x="28.0" y="41.00000000000007" font-family="sans-serif" font-size="12">
<tspan x="28.0" y="41.00000000000007">UI</tspan>
</text>
<rect x="220.0" y="420.0" width="600.0" height="350.0" fill="#E8F5E8" stroke="#333" stroke-width="1" rx="6"/>
<text x="228.0" y="436.0" font-family="sans-serif" font-size="12">
<tspan x="228.0" y="436.0">Application</tspan>
</text>
<rect x="20.0" y="425.0" width="520.0" height="50.0" fill="#E8F5E8" stroke="#333" stroke-width="1" rx="6"/>
<text x="28.0" y="441.0" font-family="sans-serif" font-size="12">
<tspan x="28.0" y="441.0">Application</tspan>
</text>
<rect x="440.0" y="115.0" width="160.0" height="60.0" fill="#E8F5E8" stroke="#333" stroke-width="1" rx="6"/>
<text x="448.0" y="131.0" font-family="sans-serif" font-size="12">
<tspan x="448.0" y="131.0">Start</tspan>
</text>
<rect x="390.0" y="205.0" width="260.0" height="80.0" fill="#E8F5E8" stroke="#333" stroke-width="1" rx="6"/>
<text x="398.0" y="221.0" font-family="sans-serif" font-size="12">
<tspan x="398.0" y="221.0">Open File</tspan>
</text>
<rect x="390.0" y="305.0" width="260.0" height="80.0" fill="#E8F5E8" stroke="#333" stroke-width="1" rx="6"/>
<text x="398.0" y="321.0" font-family="sans-serif" font-size="12">
<tspan x="398.0" y="321.0">Parse</tspan>
</text>
<line x1="220.0" y1="370.0" x2="600.0" y2="175.0" stroke="#000" stroke-width="2" marker-end="url(#arrow)"/>
<line x1="390.0" y1="285.0" x2="650.0" y2="385.0" stroke="#000" stroke-width="2" marker-end="url(#arrow)"/>
</svg>