<svg xmlns="http://www.w3.org/2000/svg" width="800px" height="950px" viewBox="0 0 800 950">
<defs>
<marker id="arrow" markerWidth="10" markerHeight="7" refX="10" refY="3.5" orient="auto">
<path d="M0,0 L10,3.5 L0,7 z" fill="#000" />
</marker>
</defs>
<rect width="100%" height="100%" fill="#ffffff"/>
<rect x="20.0" y="43.999999999999964" width="220.00000000000003" height="72.0" fill="#E8F5E8" stroke="#333" stroke-width="1" rx="6"/>
<text x="28.0" y="59.999999999999964" font-family="sans-serif" font-size="12">
<tspan x="28.0" y="59.999999999999964">src</tspan>
<tspan x="28.0" y="73.99999999999997">- create_arxml_editor</tspan>
</text>
<rect x="279.99999999999994" y="43.999999999999964" width="220.00000000000003" height="72.0" fill="#E8F5E8" stroke="#333" stroke-width="1" rx="6"/>
<text x="287.99999999999994" y="59.999999999999964" font-family="sans-serif" font-size="12">
<tspan x="287.99999999999994" y="59.999999999999964">src/core</tspan>
<tspan x="287.99999999999994" y="73.99999999999997">- setup_container</tspan>
</text>
<rect x="539.9999999999999" y="19.999999999999968" width="220.00000000000003" height="120.0" fill="#E8F5E8" stroke="#333" stroke-width="1" rx="6"/>
<text x="547.9999999999999" y="35.99999999999997" font-family="sans-serif" font-size="12">
<tspan x="547.9999999999999" y="35.99999999999997">src/core/domain</tspan>
<tspan x="547.9999999999999" y="49.99999999999997">- from_qobject_data_element</tspan>
<tspan x="547.9999999999999" y="63.99999999999997">-</tspan>
<tspan x="547.9999999999999" y="77.99999999999997">from_qobject_port_interface</tspan>
<tspan x="547.9999999999999" y="91.99999999999997">- to_qobject_port_interface</tspan>
<tspan x="547.9999999999999" y="105.99999999999997">-</tspan>
<tspan x="547.9999999999999" y="119.99999999999997">from_qobject_sw_component_type</tspan>
<tspan x="547.9999999999999" y="133.99999999999997">-</tspan>
<tspan x="547.9999999999999" y="147.99999999999997">to_qobject_sw_component_type</tspan>
</text>
<rect x="20.0" y="178.0" width="220.00000000000003" height="84.0" fill="#E8F5E8" stroke="#333" stroke-width="1" rx="6"/>
<text x="28.0" y="194.0" font-family="sans-serif" font-size="12">
<tspan x="28.0" y="194.0">src/ui</tspan>
<tspan x="28.0" y="208.0">- main</tspan>
<tspan x="28.0" y="222.0">- main</tspan>
</text>
</svg>