<svg xmlns="http://www.w3.org/2000/svg" width="800px" height="880px" viewBox="0 0 800 880">
<defs>
<marker id="arrow" markerWidth="10" markerHeight="7" refX="10" refY="3.5" orient="auto">
<path d="M0,0 L10,3.5 L0,7 z" fill="#000" />
</marker>
</defs>
<rect width="100%" height="100%" fill="#ffffff"/>
<rect x="20.0" y="20.000000000000032" width="180.0" height="80.0" fill="#E8F5E8" stroke="#333" stroke-width="1" rx="6"/>
<text x="28.0" y="36.00000000000003" font-family="sans-serif" font-size="12">
<tspan x="28.0" y="36.00000000000003">ARXMLEditorApp</tspan>
</text>
<rect x="220.0" y="20.000000000000032" width="180.0" height="80.0" fill="#E8F5E8" stroke="#333" stroke-width="1" rx="6"/>
<text x="228.0" y="36.00000000000003" font-family="sans-serif" font-size="12">
<tspan x="228.0" y="36.00000000000003">ARXMLDocument</tspan>
</text>
<rect x="419.99999999999994" y="20.000000000000032" width="180.0" height="80.0" fill="#FFF3E0" stroke="#333" stroke-width="1" rx="6"/>
<text x="427.99999999999994" y="36.00000000000003" font-family="sans-serif" font-size="12">
<tspan x="427.99999999999994" y="36.00000000000003">ARXMLParser</tspan>
</text>
<rect x="130.0" y="225.00000000000003" width="160.0" height="70.0" fill="#E8F5E8" stroke="#333" stroke-width="1" rx="6"/>
<text x="138.0" y="241.00000000000003" font-family="sans-serif" font-size="12">
<tspan x="138.0" y="241.00000000000003">SwComponentType</tspan>
</text>
<rect x="330.0" y="225.00000000000003" width="160.0" height="70.0" fill="#E8F5E8" stroke="#333" stroke-width="1" rx="6"/>
<text x="338.0" y="241.00000000000003" font-family="sans-serif" font-size="12">
<tspan x="338.0" y="241.00000000000003">PortInterface</tspan>
</text>
<line x1="220.0" y1="100.00000000000004" x2="199.99999999999997" y2="100.00000000000004" stroke="#000" stroke-width="2" marker-end="url(#arrow)"/>
<text x="210.0" y="94.00000000000004" font-family="sans-serif" font-size="12" text-anchor="middle">controls</text>
</svg>